<svg xmlns="http://www.w3.org/2000/svg" width="24" height="24"><g><title>background</title><rect id="canvas_background" width="582" height="402" x="-1" y="-1" fill="none"/></g><g><title>Layer 1</title><path id="svg_1" fill="#4163f2" fill-rule="evenodd" d="m23,14.5l-8.5,0l0,8.5c0,0.276 -0.224,0.5 -0.5,0.5l-4,0c-0.276,0 -0.5,-0.224 -0.5,-0.5l0,-8.5l-8.5,0c-0.276,0 -0.5,-0.224 -0.5,-0.5l0,-4c0,-0.276 0.224,-0.5 0.5,-0.5l8.5,0l0,-8.5c0,-0.276 0.224,-0.5 0.5,-0.5l4,0c0.276,0 0.5,0.224 0.5,0.5l0,8.5l8.5,0c0.276,0 0.5,0.224 0.5,0.5l0,4c0,0.276 -0.224,0.5 -0.5,0.5z" clip-rule="evenodd"/></g></svg>